<?xml version="1.0" encoding="utf-8"?>
<!-- Generator: Adobe Illustrator 19.2.1, SVG Export Plug-In . SVG Version: 6.00 Build 0)  -->
<svg version="1.1" xmlns="http://www.w3.org/2000/svg" xmlns:xlink="http://www.w3.org/1999/xlink" x="0px" y="0px"
	 viewBox="0 0 36 36" style="enable-background:new 0 0 36 36;" xml:space="preserve">
<style type="text/css">
	.st0{fill:none;}
</style>
<g id="Layer_1">
	<path class="st0" d="M0,0h36v36H0V0z"/>
	<path d="M18,0C8,0,0,8,0,18s8,18,18,18s18-8,18-18S27.9,0,18,0z M18,33.6c-8.6,0-15.6-7-15.6-15.6S9.4,2.4,18,2.4s15.6,7,15.6,15.6
		S26.6,33.6,18,33.6z"/>
	<polyline points="14.6,11.4 22.8,19.7 24.6,17.9 16.3,9.7 	"/>
	<polyline points="16.3,26.2 24.6,17.9 22.8,16.2 14.6,24.5 	"/>
</g>
<g id="Layer_2">
</g>
</svg>
